REM DIRINDEX 1\8,1\2\11,1\3\12,1\3\14,1\5\15,1\5\16,1\6\17,1\6\18,1\4\19,1\4\20,1\4\21,1\4\22,1\7\23,1\7\24,1\7\25,1\2\9\26,1\2\9\27,1\2\10\28,1\2\10\29,1\2\10\30,1\2\10\31,1\2\10\32,1\3\13\33,1\3\13\34,1\3\13\35
REM DIRNAME cjc123,folder01,folder02,folder03,folder04,folder05,folder06,folder07,folder08,folder09,folder10,folder11,folder12,folder13,folder14,folder15,folder16,folder17,folder18,folder19,folder20,folder21,folder22,folder23,folder24,folder25,folder26,folder27,folder28,folder29,folder30,folder31,folder32,folder33,folder34
TITLE ""
FILE "2-42 042_UNIT4_SET1.mp3" MP3
  TRACK 01 AUDIO
    TITLE "11:cjc123_4946"
    INDEX 01 00:00:00
  TRACK 02 AUDIO
    TITLE "0:"
    INDEX 01 00:02:47
  TRACK 03 AUDIO
    TITLE "28:cjc123_4947"
    INDEX 01 00:03:25
  TRACK 04 AUDIO
    TITLE "0:"
    INDEX 01 00:04:29
  TRACK 05 AUDIO
    TITLE "29:cjc123_4948"
    INDEX 01 00:04:50
  TRACK 06 AUDIO
    TITLE "0:"
    INDEX 01 00:05:71
  TRACK 07 AUDIO
    TITLE "30:cjc123_4949"
    INDEX 01 00:06:12
  TRACK 08 AUDIO
    TITLE "0:"
    INDEX 01 00:07:09
  TRACK 09 AUDIO
    TITLE "31:cjc123_4950"
    INDEX 01 00:08:03
  TRACK 10 AUDIO
    TITLE "0:"
    INDEX 01 00:11:50
  TRACK 11 AUDIO
    TITLE "32:cjc123_4951"
    INDEX 01 00:12:03
  TRACK 12 AUDIO
    TITLE "0:"
    INDEX 01 00:15:56
  TRACK 13 AUDIO
    TITLE "28:cjc123_4952"
    INDEX 01 00:16:22
  TRACK 14 AUDIO
    TITLE "0:"
    INDEX 01 00:17:43
  TRACK 15 AUDIO
    TITLE "29:cjc123_4953"
    INDEX 01 00:17:67
  TRACK 16 AUDIO
    TITLE "0:"
    INDEX 01 00:18:68
  TRACK 17 AUDIO
    TITLE "30:cjc123_4954"
    INDEX 01 00:19:11
  TRACK 18 AUDIO
    TITLE "0:"
    INDEX 01 00:20:20
  TRACK 19 AUDIO
    TITLE "31:cjc123_4955"
    INDEX 01 00:20:71
  TRACK 20 AUDIO
    TITLE "0:"
    INDEX 01 00:24:02
  TRACK 21 AUDIO
    TITLE "32:cjc123_4956"
    INDEX 01 00:24:45
  TRACK 22 AUDIO
    TITLE "0:"
    INDEX 01 00:28:72
  TRACK 23 AUDIO
    TITLE "28:cjc123_4957"
    INDEX 01 00:29:42
  TRACK 24 AUDIO
    TITLE "0:"
    INDEX 01 00:30:59
  TRACK 25 AUDIO
    TITLE "29:cjc123_4958"
    INDEX 01 00:31:10
  TRACK 26 AUDIO
    TITLE "0:"
    INDEX 01 00:32:23
  TRACK 27 AUDIO
    TITLE "30:cjc123_4959"
    INDEX 01 00:32:39
  TRACK 28 AUDIO
    TITLE "0:"
    INDEX 01 00:33:58
  TRACK 29 AUDIO
    TITLE "31:cjc123_4960"
    INDEX 01 00:34:61
  TRACK 30 AUDIO
    TITLE "0:"
    INDEX 01 00:39:29
  TRACK 31 AUDIO
    TITLE "32:cjc123_4961"
    INDEX 01 00:39:72
  TRACK 32 AUDIO
    TITLE "0:"
    INDEX 01 00:44:22
  TRACK 33 AUDIO
    TITLE "28:cjc123_4962"
    INDEX 01 00:44:67
  TRACK 34 AUDIO
    TITLE "0:"
    INDEX 01 00:46:13
  TRACK 35 AUDIO
    TITLE "29:cjc123_4963"
    INDEX 01 00:46:33
  TRACK 36 AUDIO
    TITLE "0:"
    INDEX 01 00:47:44
  TRACK 37 AUDIO
    TITLE "30:cjc123_4964"
    INDEX 01 00:47:62
  TRACK 38 AUDIO
    TITLE "0:"
    INDEX 01 00:49:02
  TRACK 39 AUDIO
    TITLE "31:cjc123_4965"
    INDEX 01 00:49:63
  TRACK 40 AUDIO
    TITLE "0:"
    INDEX 01 00:54:68
  TRACK 41 AUDIO
    TITLE "32:cjc123_4966"
    INDEX 01 00:55:22
  TRACK 42 AUDIO
    TITLE "0:"
    INDEX 01 01:00:19
  TRACK 43 AUDIO
    TITLE "28:cjc123_4967"
    INDEX 01 01:00:51
  TRACK 44 AUDIO
    TITLE "0:"
    INDEX 01 01:01:46
  TRACK 45 AUDIO
    TITLE "29:cjc123_4968"
    INDEX 01 01:01:70
  TRACK 46 AUDIO
    TITLE "0:"
    INDEX 01 01:03:04
  TRACK 47 AUDIO
    TITLE "30:cjc123_4969"
    INDEX 01 01:03:22
  TRACK 48 AUDIO
    TITLE "0:"
    INDEX 01 01:04:19
  TRACK 49 AUDIO
    TITLE "31:cjc123_4970"
    INDEX 01 01:04:70
  TRACK 50 AUDIO
    TITLE "0:"
    INDEX 01 01:08:40
  TRACK 51 AUDIO
    TITLE "32:cjc123_4971"
    INDEX 01 01:09:03
  TRACK 52 AUDIO
    TITLE "0:"
    INDEX 01 01:13:14
  TRACK 53 AUDIO
    TITLE "28:cjc123_4972"
    INDEX 01 01:13:59
  TRACK 54 AUDIO
    TITLE "0:"
    INDEX 01 01:14:47
  TRACK 55 AUDIO
    TITLE "29:cjc123_4973"
    INDEX 01 01:14:74
  TRACK 56 AUDIO
    TITLE "0:"
    INDEX 01 01:15:70
  TRACK 57 AUDIO
    TITLE "30:cjc123_4974"
    INDEX 01 01:16:24
  TRACK 58 AUDIO
    TITLE "0:"
    INDEX 01 01:17:16
  TRACK 59 AUDIO
    TITLE "31:cjc123_4975"
    INDEX 01 01:17:69
  TRACK 60 AUDIO
    TITLE "0:"
    INDEX 01 01:21:16
  TRACK 61 AUDIO
    TITLE "32:cjc123_4976"
    INDEX 01 01:21:61
  TRACK 62 AUDIO
    TITLE "0:"
    INDEX 01 01:25:35
  TRACK 63 AUDIO
    TITLE "28:cjc123_4977"
    INDEX 01 01:26:05
  TRACK 64 AUDIO
    TITLE "0:"
    INDEX 01 01:27:04
  TRACK 65 AUDIO
    TITLE "29:cjc123_4978"
    INDEX 01 01:27:18
  TRACK 66 AUDIO
    TITLE "0:"
    INDEX 01 01:28:02
  TRACK 67 AUDIO
    TITLE "30:cjc123_4979"
    INDEX 01 01:28:25
  TRACK 68 AUDIO
    TITLE "0:"
    INDEX 01 01:29:17
  TRACK 69 AUDIO
    TITLE "31:cjc123_4980"
    INDEX 01 01:30:13
  TRACK 70 AUDIO
    TITLE "0:"
    INDEX 01 01:35:49
  TRACK 71 AUDIO
    TITLE "32:cjc123_4981"
    INDEX 01 01:36:01
  TRACK 72 AUDIO
    TITLE "0:"
    INDEX 01 01:43:03
  TRACK 73 AUDIO
    TITLE "28:cjc123_4982"
    INDEX 01 01:43:31
  TRACK 74 AUDIO
    TITLE "0:"
    INDEX 01 01:44:38
  TRACK 75 AUDIO
    TITLE "29:cjc123_4983"
    INDEX 01 01:44:56
  TRACK 76 AUDIO
    TITLE "0:"
    INDEX 01 01:45:57
  TRACK 77 AUDIO
    TITLE "30:cjc123_4984"
    INDEX 01 01:45:71
  TRACK 78 AUDIO
    TITLE "0:"
    INDEX 01 01:47:09
  TRACK 79 AUDIO
    TITLE "31:cjc123_4985"
    INDEX 01 01:47:62
  TRACK 80 AUDIO
    TITLE "0:"
    INDEX 01 01:53:04
  TRACK 81 AUDIO
    TITLE "32:cjc123_4986"
    INDEX 01 01:53:41
  TRACK 82 AUDIO
    TITLE "0:"
    INDEX 01 01:59:28
  TRACK 83 AUDIO
    TITLE "28:cjc123_4987"
    INDEX 01 02:00:10
  TRACK 84 AUDIO
    TITLE "0:"
    INDEX 01 02:01:09
  TRACK 85 AUDIO
    TITLE "29:cjc123_4988"
    INDEX 01 02:01:31
  TRACK 86 AUDIO
    TITLE "0:"
    INDEX 01 02:02:44
  TRACK 87 AUDIO
    TITLE "30:cjc123_4989"
    INDEX 01 02:02:64
  TRACK 88 AUDIO
    TITLE "0:"
    INDEX 01 02:03:65
  TRACK 89 AUDIO
    TITLE "31:cjc123_4990"
    INDEX 01 02:04:41
  TRACK 90 AUDIO
    TITLE "0:"
    INDEX 01 02:08:23
  TRACK 91 AUDIO
    TITLE "32:cjc123_4991"
    INDEX 01 02:08:64
  TRACK 92 AUDIO
    TITLE "0:"
    INDEX 01 02:12:64
  TRACK 93 AUDIO
    TITLE "28:cjc123_4992"
    INDEX 01 02:13:32
  TRACK 94 AUDIO
    TITLE "0:"
    INDEX 01 02:14:31
  TRACK 95 AUDIO
    TITLE "29:cjc123_4993"
    INDEX 01 02:14:53
  TRACK 96 AUDIO
    TITLE "0:"
    INDEX 01 02:15:74
  TRACK 97 AUDIO
    TITLE "30:cjc123_4994"
    INDEX 01 02:16:15
  TRACK 98 AUDIO
    TITLE "0:"
    INDEX 01 02:17:12
  TRACK 99 AUDIO
    TITLE "31:cjc123_4995"
    INDEX 01 02:17:57
  TRACK 100 AUDIO
    TITLE "0:"
    INDEX 01 02:22:09
  TRACK 101 AUDIO
    TITLE "32:cjc123_4996"
    INDEX 01 02:22:49
  TRACK 102 AUDIO
    TITLE "0:"
    INDEX 01 02:28:06
  TRACK 103 AUDIO
    TITLE "28:cjc123_4997"
    INDEX 01 02:28:49
  TRACK 104 AUDIO
    TITLE "0:"
    INDEX 01 02:29:57
  TRACK 105 AUDIO
    TITLE "29:cjc123_4998"
    INDEX 01 02:30:01
  TRACK 106 AUDIO
    TITLE "0:"
    INDEX 01 02:31:01
  TRACK 107 AUDIO
    TITLE "30:cjc123_4999"
    INDEX 01 02:31:18
  TRACK 108 AUDIO
    TITLE "0:"
    INDEX 01 02:32:24
  TRACK 109 AUDIO
    TITLE "31:cjc123_5000"
    INDEX 01 02:32:74
  TRACK 110 AUDIO
    TITLE "0:"
    INDEX 01 02:38:38
  TRACK 111 AUDIO
    TITLE "32:cjc123_5001"
    INDEX 01 02:38:67
  TRACK 112 AUDIO
    TITLE "0:"
    INDEX 01 02:45:61
  TRACK 113 AUDIO
    TITLE "28:cjc123_5002"
    INDEX 01 02:46:37
  TRACK 114 AUDIO
    TITLE "0:"
    INDEX 01 02:47:47
  TRACK 115 AUDIO
    TITLE "29:cjc123_5003"
    INDEX 01 02:47:62
  TRACK 116 AUDIO
    TITLE "0:"
    INDEX 01 02:49:38
  TRACK 117 AUDIO
    TITLE "30:cjc123_5004"
    INDEX 01 02:49:49
  TRACK 118 AUDIO
    TITLE "0:"
    INDEX 01 02:50:68
  TRACK 119 AUDIO
    TITLE "31:cjc123_5005"
    INDEX 01 02:51:42
  TRACK 120 AUDIO
    TITLE "0:"
    INDEX 01 02:54:68
  TRACK 121 AUDIO
    TITLE "32:cjc123_5006"
    INDEX 01 02:55:25
  TRACK 122 AUDIO
    TITLE "0:"
    INDEX 01 03:00:47
  TRACK 123 AUDIO
    TITLE "28:cjc123_5007"
    INDEX 01 03:01:17
  TRACK 124 AUDIO
    TITLE "0:"
    INDEX 01 03:02:30
  TRACK 125 AUDIO
    TITLE "29:cjc123_5008"
    INDEX 01 03:02:44
  TRACK 126 AUDIO
    TITLE "0:"
    INDEX 01 03:03:71
  TRACK 127 AUDIO
    TITLE "30:cjc123_5009"
    INDEX 01 03:04:10
  TRACK 128 AUDIO
    TITLE "0:"
    INDEX 01 03:05:09
  TRACK 129 AUDIO
    TITLE "31:cjc123_5010"
    INDEX 01 03:05:66
  TRACK 130 AUDIO
    TITLE "0:"
    INDEX 01 03:11:29
  TRACK 131 AUDIO
    TITLE "32:cjc123_5011"
    INDEX 01 03:11:57
  TRACK 132 AUDIO
    TITLE "0:"
    INDEX 01 03:17:26
  TRACK 133 AUDIO
    TITLE "28:cjc123_5012"
    INDEX 01 03:17:67
  TRACK 134 AUDIO
    TITLE "0:"
    INDEX 01 03:19:02
  TRACK 135 AUDIO
    TITLE "29:cjc123_5013"
    INDEX 01 03:19:27
  TRACK 136 AUDIO
    TITLE "0:"
    INDEX 01 03:20:30
  TRACK 137 AUDIO
    TITLE "30:cjc123_5014"
    INDEX 01 03:20:60
  TRACK 138 AUDIO
    TITLE "0:"
    INDEX 01 03:21:61
  TRACK 139 AUDIO
    TITLE "31:cjc123_5015"
    INDEX 01 03:22:33
  TRACK 140 AUDIO
    TITLE "0:"
    INDEX 01 03:27:30
  TRACK 141 AUDIO
    TITLE "32:cjc123_5016"
    INDEX 01 03:27:66
  TRACK 142 AUDIO
    TITLE "0:"
    INDEX 01 03:32:14
  TRACK 143 AUDIO
    TITLE "28:cjc123_5017"
    INDEX 01 03:32:65
  TRACK 144 AUDIO
    TITLE "0:"
    INDEX 01 03:33:49
  TRACK 145 AUDIO
    TITLE "29:cjc123_5018"
    INDEX 01 03:34:03
  TRACK 146 AUDIO
    TITLE "0:"
    INDEX 01 03:35:20
  TRACK 147 AUDIO
    TITLE "30:cjc123_5019"
    INDEX 01 03:35:40
  TRACK 148 AUDIO
    TITLE "0:"
    INDEX 01 03:36:31
  TRACK 149 AUDIO
    TITLE "31:cjc123_5020"
    INDEX 01 03:37:03
  TRACK 150 AUDIO
    TITLE "0:"
    INDEX 01 03:40:35
  TRACK 151 AUDIO
    TITLE "32:cjc123_5021"
    INDEX 01 03:40:70
  TRACK 152 AUDIO
    TITLE "0:"
    INDEX 01 03:44:54
